<svg xmlns="http://www.w3.org/2000/svg" viewBox="0 0 400 400" fill="none">
  <!-- 1차 동물권 프로젝트: 비건런/채식 체험 -> 3D 샐러드볼 -->
  <defs>
    <linearGradient id="bowlBody" x1="0%" y1="0%" x2="0%" y2="100%">
      <stop offset="0%" stop-color="#FDFBF6"/>
      <stop offset="100%" stop-color="#E8DFCB"/>
    </linearGradient>
    <linearGradient id="leafA" x1="0%" y1="0%" x2="100%" y2="100%">
      <stop offset="0%" stop-color="#B7E0A0"/>
      <stop offset="100%" stop-color="#7FBE68"/>
    </linearGradient>
    <linearGradient id="leafB" x1="0%" y1="0%" x2="100%" y2="100%">
      <stop offset="0%" stop-color="#CDEBAE"/>
      <stop offset="100%" stop-color="#94CC78"/>
    </linearGradient>
    <radialGradient id="tomatoGrad" cx="35%" cy="30%" r="75%">
      <stop offset="0%" stop-color="#FF9B85"/>
      <stop offset="100%" stop-color="#E85B45"/>
    </radialGradient>
  </defs>

  <ellipse cx="200" cy="330" rx="106" ry="16" fill="#4A4358" opacity="0.12"/>

  <path d="M78 220 C 78 292, 132 336, 200 336 C 268 336, 322 292, 322 220 Z" fill="url(#bowlBody)"/>
  <path d="M78 220 C 78 292, 132 336, 200 336 C 268 336, 322 292, 322 220 Z" fill="#FFFFFF" opacity="0.15"/>
  <ellipse cx="200" cy="220" rx="122" ry="34" fill="#F4EEDD"/>
  <ellipse cx="200" cy="220" rx="122" ry="34" fill="none" stroke="#D8CDAE" stroke-width="3"/>

  <path d="M118 202 C 108 172, 132 148, 160 156 C 168 132, 202 128, 214 152 C 240 138, 268 158, 258 184 C 280 190, 282 214, 258 216 L 132 216 C 110 214, 112 206, 118 202 Z" fill="url(#leafA)"/>
  <path d="M150 210 C 146 188, 168 172, 190 180 C 204 164, 232 168, 236 190 C 252 192, 254 210, 238 214 L 158 214 Z" fill="url(#leafB)" opacity="0.9"/>

  <circle cx="152" cy="196" r="17" fill="url(#tomatoGrad)"/>
  <circle cx="252" cy="200" r="14" fill="url(#tomatoGrad)"/>
  <path d="M152 179 l4 -8 4 8" stroke="#5B8A3E" stroke-width="3" stroke-linecap="round" fill="none"/>

  <path d="M212 196 L232 188 L228 208 Z" fill="#F0A63C"/>

  <ellipse cx="150" cy="230" rx="26" ry="8" fill="#FFFFFF" opacity="0.4"/>
</svg>
