<svg xmlns="http://www.w3.org/2000/svg" viewBox="0 0 400 400" fill="none">
  <!-- 집래방: 노래방 -> 3D 핸드마이크 -->
  <defs>
    <linearGradient id="micHead" x1="0%" y1="0%" x2="100%" y2="100%">
      <stop offset="0%" stop-color="#CBD1EA"/>
      <stop offset="50%" stop-color="#8A91BC"/>
      <stop offset="100%" stop-color="#565D82"/>
    </linearGradient>
    <linearGradient id="micHandle" x1="0%" y1="0%" x2="100%" y2="100%">
      <stop offset="0%" stop-color="#F0D48A"/>
      <stop offset="50%" stop-color="#DDB255"/>
      <stop offset="100%" stop-color="#B47F2C"/>
    </linearGradient>
  </defs>

  <ellipse cx="212" cy="330" rx="86" ry="16" fill="#4A4358" opacity="0.12"/>

  <g transform="rotate(28 200 200)">
    <!-- 손잡이 -->
    <rect x="176" y="210" width="56" height="140" rx="28" fill="url(#micHandle)"/>
    <rect x="176" y="210" width="24" height="140" rx="12" fill="#FFFFFF" opacity="0.2"/>
    <rect x="176" y="222" width="56" height="8" fill="#96631C" opacity="0.5"/>
    <rect x="176" y="242" width="56" height="8" fill="#96631C" opacity="0.5"/>
    <rect x="176" y="262" width="56" height="8" fill="#96631C" opacity="0.5"/>

    <!-- 마이크 헤드 -->
    <rect x="146" y="70" width="116" height="164" rx="58" fill="url(#micHead)"/>
    <rect x="146" y="70" width="52" height="164" rx="26" fill="#FFFFFF" opacity="0.18"/>

    <g opacity="0.85">
      <circle cx="174" cy="104" r="4.5" fill="#3F4666"/>
      <circle cx="204" cy="98" r="4.5" fill="#3F4666"/>
      <circle cx="234" cy="104" r="4.5" fill="#3F4666"/>
      <circle cx="166" cy="128" r="4.5" fill="#3F4666"/>
      <circle cx="204" cy="122" r="4.5" fill="#3F4666"/>
      <circle cx="242" cy="128" r="4.5" fill="#3F4666"/>
      <circle cx="174" cy="152" r="4.5" fill="#3F4666"/>
      <circle cx="204" cy="146" r="4.5" fill="#3F4666"/>
      <circle cx="234" cy="152" r="4.5" fill="#3F4666"/>
      <circle cx="184" cy="176" r="4.5" fill="#3F4666"/>
      <circle cx="224" cy="176" r="4.5" fill="#3F4666"/>
    </g>
  </g>

  <path d="M300 150 C 314 140, 314 122, 300 112" stroke="#C9B6F0" stroke-width="7" stroke-linecap="round" fill="none" opacity="0.85"/>
  <path d="M316 166 C 340 148, 340 114, 316 96" stroke="#C9B6F0" stroke-width="7" stroke-linecap="round" fill="none" opacity="0.55"/>

  <path d="M96 150 L102 168 L120 172 L102 176 L96 194 L90 176 L72 172 L90 168 Z" fill="#AFD8F0"/>
  <circle cx="120" cy="220" r="7" fill="#F2A0B8" opacity="0.85"/>
</svg>
